<svg width="35" height="35" stroke-width="2" viewBox="0 0 35 35" fill="none" xmlns="http://www.w3.org/2000/svg">
    <path d="M29.6255 25.1535C29.6255 25.1713 29.6251 25.1892 29.6243 25.207L29.3016 24.6529C28.3641 23.0435 27.25 19.0426 27.25 14.2188C27.25 11.6329 26.2228 9.15294 24.3943 7.32446C22.5658 5.49598 20.0859 4.46875 17.5 4.46875C14.9141 4.46875 12.4342 5.49598 10.6057 7.32446C8.77724 9.15294 7.75001 11.6329 7.75001 14.2188C7.75001 19.0437 6.63465 23.0448 5.6983 24.6531L5.37884 25.2018C5.3782 25.1852 5.37791 25.1686 5.37797 25.152C5.37872 24.9432 5.43448 24.7384 5.53964 24.558L5.54062 24.5564C6.41583 23.0488 7.56251 19.1614 7.56251 14.2188C7.56251 11.5832 8.60949 9.05552 10.4731 7.19188C12.3368 5.32823 14.8644 4.28125 17.5 4.28125C20.1356 4.28125 22.6632 5.32823 24.5269 7.19188C26.3905 9.05552 27.4375 11.5832 27.4375 14.2188C27.4375 19.1603 28.5856 23.049 29.4608 24.5564L29.4608 24.5564L29.4636 24.5613C29.5692 24.7408 29.6251 24.9452 29.6255 25.1535ZM28.4375 26.1562H29.0849C29.0678 26.1674 29.0504 26.178 29.0327 26.1883C28.854 26.2915 28.6509 26.3452 28.4444 26.3438V26.3438H28.4375H6.56386C6.35511 26.3435 6.15012 26.2882 5.96956 26.1834C5.9545 26.1747 5.93965 26.1656 5.92502 26.1562H6.56251H28.4375ZM21.9688 30.625C21.9688 30.6499 21.9589 30.6737 21.9413 30.6913C21.9237 30.7089 21.8999 30.7188 21.875 30.7188H13.125C13.1001 30.7188 13.0763 30.7089 13.0587 30.6913C13.0411 30.6737 13.0313 30.6499 13.0313 30.625C13.0313 30.6001 13.0411 30.5763 13.0587 30.5587C13.0763 30.5411 13.1001 30.5312 13.125 30.5312H21.875C21.8999 30.5312 21.9237 30.5411 21.9413 30.5587C21.9589 30.5763 21.9688 30.6001 21.9688 30.625Z" fill="#757575"/>
    <path d="M29.6255 25.1535C29.6255 25.1713 29.6251 25.1892 29.6243 25.207L29.3016 24.6529C28.3641 23.0435 27.25 19.0426 27.25 14.2188C27.25 11.6329 26.2228 9.15294 24.3943 7.32446C22.5658 5.49598 20.0859 4.46875 17.5 4.46875C14.9141 4.46875 12.4342 5.49598 10.6057 7.32446C8.77724 9.15294 7.75001 11.6329 7.75001 14.2188C7.75001 19.0437 6.63465 23.0448 5.6983 24.6531L5.37884 25.2018C5.3782 25.1852 5.37791 25.1686 5.37797 25.152C5.37872 24.9432 5.43448 24.7384 5.53964 24.558L5.54062 24.5564C6.41583 23.0488 7.56251 19.1614 7.56251 14.2188C7.56251 11.5832 8.60949 9.05552 10.4731 7.19188C12.3368 5.32823 14.8644 4.28125 17.5 4.28125C20.1356 4.28125 22.6632 5.32823 24.5269 7.19188C26.3905 9.05552 27.4375 11.5832 27.4375 14.2188C27.4375 19.1603 28.5856 23.049 29.4608 24.5564L29.4608 24.5564L29.4636 24.5613C29.5692 24.7408 29.6251 24.9452 29.6255 25.1535ZM28.4375 26.1562H29.0849C29.0678 26.1674 29.0504 26.178 29.0327 26.1883C28.854 26.2915 28.6509 26.3452 28.4444 26.3438V26.3438H28.4375H6.56386C6.35511 26.3435 6.15012 26.2882 5.96956 26.1834C5.9545 26.1747 5.93965 26.1656 5.92502 26.1562H6.56251H28.4375ZM21.9688 30.625C21.9688 30.6499 21.9589 30.6737 21.9413 30.6913C21.9237 30.7089 21.8999 30.7188 21.875 30.7188H13.125C13.1001 30.7188 13.0763 30.7089 13.0587 30.6913C13.0411 30.6737 13.0313 30.6499 13.0313 30.625C13.0313 30.6001 13.0411 30.5763 13.0587 30.5587C13.0763 30.5411 13.1001 30.5312 13.125 30.5312H21.875C21.8999 30.5312 21.9237 30.5411 21.9413 30.5587C21.9589 30.5763 21.9688 30.6001 21.9688 30.625Z" fill="black" fill-opacity="0.2"/>
    <path d="M29.6255 25.1535C29.6255 25.1713 29.6251 25.1892 29.6243 25.207L29.3016 24.6529C28.3641 23.0435 27.25 19.0426 27.25 14.2188C27.25 11.6329 26.2228 9.15294 24.3943 7.32446C22.5658 5.49598 20.0859 4.46875 17.5 4.46875C14.9141 4.46875 12.4342 5.49598 10.6057 7.32446C8.77724 9.15294 7.75001 11.6329 7.75001 14.2188C7.75001 19.0437 6.63465 23.0448 5.6983 24.6531L5.37884 25.2018C5.3782 25.1852 5.37791 25.1686 5.37797 25.152C5.37872 24.9432 5.43448 24.7384 5.53964 24.558L5.54062 24.5564C6.41583 23.0488 7.56251 19.1614 7.56251 14.2188C7.56251 11.5832 8.60949 9.05552 10.4731 7.19188C12.3368 5.32823 14.8644 4.28125 17.5 4.28125C20.1356 4.28125 22.6632 5.32823 24.5269 7.19188C26.3905 9.05552 27.4375 11.5832 27.4375 14.2188C27.4375 19.1603 28.5856 23.049 29.4608 24.5564L29.4608 24.5564L29.4636 24.5613C29.5692 24.7408 29.6251 24.9452 29.6255 25.1535ZM28.4375 26.1562H29.0849C29.0678 26.1674 29.0504 26.178 29.0327 26.1883C28.854 26.2915 28.6509 26.3452 28.4444 26.3438V26.3438H28.4375H6.56386C6.35511 26.3435 6.15012 26.2882 5.96956 26.1834C5.9545 26.1747 5.93965 26.1656 5.92502 26.1562H6.56251H28.4375ZM21.9688 30.625C21.9688 30.6499 21.9589 30.6737 21.9413 30.6913C21.9237 30.7089 21.8999 30.7188 21.875 30.7188H13.125C13.1001 30.7188 13.0763 30.7089 13.0587 30.6913C13.0411 30.6737 13.0313 30.6499 13.0313 30.625C13.0313 30.6001 13.0411 30.5763 13.0587 30.5587C13.0763 30.5411 13.1001 30.5312 13.125 30.5312H21.875C21.8999 30.5312 21.9237 30.5411 21.9413 30.5587C21.9589 30.5763 21.9688 30.6001 21.9688 30.625Z" stroke="#757575" stroke-width="2"/>
    </svg>
    