<svg width="18" height="18" viewBox="0 0 18 18" fill="none" xmlns="http://www.w3.org/2000/svg">
    <g clip-path="url(#clip0_12_121)">
    <path d="M6.875 14.8438C6.875 15.0539 6.81269 15.2593 6.69594 15.434C6.57919 15.6088 6.41325 15.745 6.2191 15.8254C6.02496 15.9058 5.81132 15.9268 5.60522 15.8858C5.39911 15.8448 5.20979 15.7436 5.0612 15.5951C4.91261 15.4465 4.81141 15.2571 4.77042 15.051C4.72942 14.8449 4.75046 14.6313 4.83088 14.4372C4.9113 14.243 5.04748 14.0771 5.22221 13.9603C5.39693 13.8436 5.60236 13.7813 5.8125 13.7813C6.09429 13.7813 6.36454 13.8932 6.5638 14.0925C6.76306 14.2917 6.875 14.562 6.875 14.8438ZM12.7188 13.7813C12.5086 13.7813 12.3032 13.8436 12.1285 13.9603C11.9537 14.0771 11.8175 14.243 11.7371 14.4372C11.6567 14.6313 11.6357 14.8449 11.6767 15.051C11.7177 15.2571 11.8189 15.4465 11.9675 15.5951C12.116 15.7436 12.3054 15.8448 12.5115 15.8858C12.7176 15.9268 12.9312 15.9058 13.1254 15.8254C13.3195 15.745 13.4854 15.6088 13.6022 15.434C13.7189 15.2593 13.7813 15.0539 13.7813 14.8438C13.7813 14.562 13.6693 14.2917 13.4701 14.0925C13.2708 13.8932 13.0005 13.7813 12.7188 13.7813ZM15.883 5.4373L13.9884 11.5938C13.8892 11.9202 13.6874 12.2059 13.413 12.4085C13.1386 12.6111 12.8062 12.7199 12.4651 12.7188H6.08277C5.73678 12.7175 5.40052 12.6041 5.12434 12.3957C4.84816 12.1873 4.64693 11.895 4.55078 11.5626L2.1482 3.15625H1.03125C0.890354 3.15625 0.755228 3.10028 0.6556 3.00065C0.555971 2.90102 0.5 2.7659 0.5 2.625C0.5 2.4841 0.555971 2.34898 0.6556 2.24935C0.755228 2.14972 0.890354 2.09375 1.03125 2.09375H2.1482C2.37891 2.09452 2.60315 2.16998 2.78739 2.30884C2.97162 2.4477 3.10592 2.64249 3.1702 2.86406L3.70875 4.75H15.375C15.4581 4.74997 15.5401 4.76945 15.6144 4.80688C15.6886 4.8443 15.753 4.89863 15.8024 4.96548C15.8518 5.03234 15.8849 5.10985 15.8989 5.1918C15.9129 5.27375 15.9074 5.35784 15.883 5.4373ZM14.6558 5.8125H4.01223L5.57211 11.2711C5.60385 11.382 5.67085 11.4796 5.76298 11.5491C5.85512 11.6186 5.96737 11.6562 6.08277 11.6563H12.4651C12.5788 11.6563 12.6894 11.6199 12.7809 11.5523C12.8723 11.4848 12.9397 11.3897 12.9731 11.2811L14.6558 5.8125Z" fill="white"/>
    </g>
    <defs>
    <clipPath id="clip0_12_121">
    <rect width="17" height="17" fill="white" transform="translate(0.5 0.5)"/>
    </clipPath>
    </defs>
    </svg>
    