<svg width="28" height="28" viewBox="0 0 28 28" fill="none" xmlns="http://www.w3.org/2000/svg">
<path fill-rule="evenodd" clip-rule="evenodd" d="M6.38169 6.38166C6.54575 6.2178 6.76815 6.12576 7.00002 6.12576C7.2319 6.12576 7.45429 6.2178 7.61836 6.38166L21.6184 20.3817C21.7043 20.4618 21.7733 20.5584 21.8211 20.6657C21.8689 20.773 21.8946 20.8889 21.8967 21.0064C21.8988 21.1239 21.8772 21.2406 21.8332 21.3495C21.7892 21.4585 21.7237 21.5574 21.6406 21.6405C21.5575 21.7236 21.4585 21.7891 21.3496 21.8331C21.2406 21.8771 21.1239 21.8988 21.0064 21.8967C20.8889 21.8946 20.7731 21.8689 20.6657 21.8211C20.5584 21.7732 20.4618 21.7043 20.3817 21.6183L6.38169 7.61833C6.21783 7.45426 6.12579 7.23187 6.12579 6.99999C6.12579 6.76812 6.21783 6.54572 6.38169 6.38166Z" fill="#1E1E1E"/>
<path fill-rule="evenodd" clip-rule="evenodd" d="M21.6184 6.38166C21.7822 6.54572 21.8743 6.76812 21.8743 6.99999C21.8743 7.23187 21.7822 7.45426 21.6184 7.61833L7.61836 21.6183C7.45249 21.7729 7.2331 21.857 7.00641 21.853C6.77973 21.849 6.56345 21.7572 6.40313 21.5969C6.24282 21.4366 6.15099 21.2203 6.14699 20.9936C6.14299 20.7669 6.22713 20.5475 6.38169 20.3817L20.3817 6.38166C20.5458 6.2178 20.7681 6.12576 21 6.12576C21.2319 6.12576 21.4543 6.2178 21.6184 6.38166Z" fill="#1E1E1E"/>
</svg>
