<svg width="25" height="25" viewBox="0 0 25 25" fill="none" xmlns="http://www.w3.org/2000/svg">
    <path d="M2.08331 5.72917C2.08331 5.31477 2.24793 4.91734 2.54096 4.62432C2.83398 4.33129 3.23141 4.16667 3.64581 4.16667H21.3541C21.7685 4.16667 22.166 4.33129 22.459 4.62432C22.752 4.91734 22.9166 5.31477 22.9166 5.72917C22.9166 6.14357 22.752 6.541 22.459 6.83403C22.166 7.12705 21.7685 7.29167 21.3541 7.29167H3.64581C3.23141 7.29167 2.83398 7.12705 2.54096 6.83403C2.24793 6.541 2.08331 6.14357 2.08331 5.72917ZM6.24998 11.9792C6.24998 11.5648 6.4146 11.1673 6.70763 10.8743C7.00065 10.5813 7.39808 10.4167 7.81248 10.4167H17.1875C17.6019 10.4167 17.9993 10.5813 18.2923 10.8743C18.5854 11.1673 18.75 11.5648 18.75 11.9792C18.75 12.3936 18.5854 12.791 18.2923 13.084C17.9993 13.3771 17.6019 13.5417 17.1875 13.5417H7.81248C7.39808 13.5417 7.00065 13.3771 6.70763 13.084C6.4146 12.791 6.24998 12.3936 6.24998 11.9792ZM10.9375 16.6667C10.5231 16.6667 10.1257 16.8313 9.83263 17.1243C9.5396 17.4173 9.37498 17.8148 9.37498 18.2292C9.37498 18.6436 9.5396 19.041 9.83263 19.334C10.1257 19.6271 10.5231 19.7917 10.9375 19.7917H14.0625C14.4769 19.7917 14.8743 19.6271 15.1673 19.334C15.4604 19.041 15.625 18.6436 15.625 18.2292C15.625 17.8148 15.4604 17.4173 15.1673 17.1243C14.8743 16.8313 14.4769 16.6667 14.0625 16.6667H10.9375Z" fill="#757575"/>
    </svg>
    