<svg width="35" height="35" stroke-width="2" viewBox="0 0 35 35" fill="none" xmlns="http://www.w3.org/2000/svg">
    <path d="M25.1562 9.84375C25.1562 11.8743 24.3496 13.8217 22.9138 15.2575C21.478 16.6934 19.5306 17.5 17.5 17.5C15.4694 17.5 13.522 16.6934 12.0862 15.2575C10.6504 13.8217 9.84375 11.8743 9.84375 9.84375C9.84375 7.81319 10.6504 5.86579 12.0862 4.42996C13.522 2.99414 15.4694 2.1875 17.5 2.1875C19.5306 2.1875 21.478 2.99414 22.9138 4.42996C24.3496 5.86579 25.1562 7.81319 25.1562 9.84375ZM22.9688 9.84375C22.9688 8.39335 22.3926 7.00235 21.367 5.97676C20.3414 4.95117 18.9504 4.375 17.5 4.375C16.0496 4.375 14.6586 4.95117 13.633 5.97676C12.6074 7.00235 12.0312 8.39335 12.0312 9.84375C12.0312 11.2942 12.6074 12.6852 13.633 13.7107C14.6586 14.7363 16.0496 15.3125 17.5 15.3125C18.9504 15.3125 20.3414 14.7363 21.367 13.7107C22.3926 12.6852 22.9688 11.2942 22.9688 9.84375ZM8.20312 19.6875C7.18784 19.6875 6.21414 20.0908 5.49623 20.8087C4.77832 21.5266 4.375 22.5003 4.375 23.5156V24.0625C4.375 26.6798 6.04078 28.8936 8.40547 30.3986C10.7833 31.9123 14.0022 32.8125 17.5 32.8125C20.9978 32.8125 24.2156 31.9123 26.5945 30.3986C28.9592 28.8936 30.625 26.6798 30.625 24.0625V23.5156C30.625 22.5003 30.2217 21.5266 29.5038 20.8087C28.7859 20.0908 27.8122 19.6875 26.7969 19.6875H8.20312ZM6.5625 23.5156C6.5625 23.0805 6.73535 22.6632 7.04303 22.3555C7.3507 22.0479 7.768 21.875 8.20312 21.875H26.7969C27.232 21.875 27.6493 22.0479 27.957 22.3555C28.2646 22.6632 28.4375 23.0805 28.4375 23.5156V24.0625C28.4375 25.6736 27.4094 27.288 25.4198 28.5534C23.4434 29.8113 20.6467 30.625 17.5 30.625C14.3533 30.625 11.5566 29.8113 9.58016 28.5534C7.58953 27.2891 6.5625 25.6725 6.5625 24.0625V23.5156Z" fill="#757575"/>
</svg>
    